<svg xmlns="http://www.w3.org/2000/svg" xmlns:xlink="http://www.w3.org/1999/xlink" width="500" zoomAndPan="magnify" viewBox="0 0 375 225" height="300" preserveAspectRatio="xMidYMid meet" version="1.0"><defs><g/><clipPath id="a62373dc55"><path d="M 13.324219 22.5 L 181.324219 22.5 L 181.324219 202.5 L 13.324219 202.5 Z M 13.324219 22.5 " clip-rule="nonzero"/></clipPath></defs><g clip-path="url(#a62373dc55)"><path fill="#ff7a47" d="M 76.230469 150.359375 L 76.230469 143.589844 L 69.453125 143.589844 L 69.453125 150.359375 Z M 165.855469 202.503906 L 165.855469 162.292969 L 137.210938 135.160156 L 173.5625 96.878906 L 181.34375 88.691406 L 175.328125 79.117188 L 154.085938 46.179688 L 143.527344 29.347656 L 139.230469 22.515625 L 60.324219 22.515625 L 27.007812 51.667969 L 123.207031 51.667969 L 130.316406 62.992188 L 139.808594 77.222656 L 144.710938 85.027344 L 116.203125 115.046875 L 103.570312 102.964844 L 92.296875 92.234375 L 57.476562 125.550781 L 57.476562 137.023438 L 13.324219 179.070312 L 13.324219 167.445312 L 28.296875 153.34375 L 28.296875 103.984375 L 57.476562 103.984375 L 57.476562 125.550781 L 63.929688 119.382812 L 63.929688 130.886719 L 77.292969 118.152344 L 82.453125 123.066406 L 89.683594 129.9375 L 109.144531 148.476562 Z M 76.230469 141.46875 L 76.230469 134.695312 L 69.453125 134.695312 L 69.453125 141.46875 Z M 78.351562 134.695312 L 78.351562 141.46875 L 85.128906 141.46875 L 85.128906 134.695312 Z M 85.128906 143.589844 L 78.351562 143.589844 L 78.351562 150.359375 L 85.128906 150.359375 Z M 85.128906 143.589844 " fill-opacity="1" fill-rule="evenodd"/></g><g fill="#000000" fill-opacity="1"><g transform="translate(144.764116, 133.913992)"><g/></g></g><g fill="#ff7a47" fill-opacity="1"><g transform="translate(162.43599, 133.913992)"><g><path d="M 17.3125 -15.09375 L 17.3125 -10.421875 L 2.4375 -10.421875 L 2.4375 -15.09375 Z M 17.3125 -15.09375 "/></g></g></g><g fill="#ff7a47" fill-opacity="1"><g transform="translate(190.963815, 133.913992)"><g><path d="M 17.84375 -20.8125 L 12.046875 -20.8125 L 12.046875 -23.03125 C 12.046875 -23.269531 11.960938 -23.472656 11.796875 -23.640625 C 11.640625 -23.816406 11.445312 -23.90625 11.21875 -23.90625 L 8.8125 -23.90625 C 8.582031 -23.90625 8.382812 -23.816406 8.21875 -23.640625 C 8.0625 -23.472656 7.984375 -23.269531 7.984375 -23.03125 L 7.984375 -18.015625 C 7.984375 -17.785156 8.0625 -17.582031 8.21875 -17.40625 C 8.382812 -17.226562 8.582031 -17.140625 8.8125 -17.140625 L 12.734375 -17.140625 C 16.335938 -17.085938 18.140625 -15.171875 18.140625 -11.390625 L 18.140625 -5.328125 C 18.140625 -1.484375 16.335938 0.4375 12.734375 0.4375 L 7.59375 0.4375 C 3.988281 0.4375 2.1875 -1.484375 2.1875 -5.328125 L 2.1875 -8.25 L 7.984375 -8.25 L 7.984375 -5.109375 C 7.984375 -4.867188 8.0625 -4.660156 8.21875 -4.484375 C 8.382812 -4.316406 8.582031 -4.234375 8.8125 -4.234375 L 11.515625 -4.234375 C 11.742188 -4.234375 11.9375 -4.316406 12.09375 -4.484375 C 12.257812 -4.660156 12.34375 -4.867188 12.34375 -5.109375 L 12.34375 -10.640625 C 12.34375 -10.878906 12.257812 -11.082031 12.09375 -11.25 C 11.9375 -11.425781 11.742188 -11.515625 11.515625 -11.515625 L 7.59375 -11.515625 C 3.988281 -11.515625 2.1875 -13.4375 2.1875 -17.28125 L 2.1875 -22.90625 C 2.1875 -26.738281 3.988281 -28.65625 7.59375 -28.65625 L 12.4375 -28.65625 C 16.039062 -28.65625 17.84375 -26.738281 17.84375 -22.90625 Z M 17.84375 -20.8125 "/></g></g></g><g fill="#ff7a47" fill-opacity="1"><g transform="translate(219.796957, 133.913992)"><g><path d="M 0.5625 -23.03125 L 0.5625 -28.21875 L 15.828125 -28.21875 L 15.828125 -23.03125 L 11.25 -23.03125 L 11.25 0 L 5.140625 0 L 5.140625 -23.03125 Z M 0.5625 -23.03125 "/></g></g></g><g fill="#ff7a47" fill-opacity="1"><g transform="translate(245.097113, 133.913992)"><g><path d="M 8.28125 -11.5625 L 8.28125 0 L 2.1875 0 L 2.1875 -28.21875 L 13.046875 -28.21875 C 16.648438 -28.21875 18.453125 -26.300781 18.453125 -22.46875 L 18.453125 -19.1875 C 18.453125 -16.863281 17.625 -15.382812 15.96875 -14.75 C 17.414062 -14.21875 18.140625 -13.023438 18.140625 -11.171875 L 18.140625 0 L 12.046875 0 L 12.046875 -10.6875 C 12.046875 -11.269531 11.769531 -11.5625 11.21875 -11.5625 Z M 8.28125 -24.078125 L 8.28125 -15.828125 L 11.515625 -15.828125 C 11.742188 -15.828125 11.9375 -15.914062 12.09375 -16.09375 C 12.257812 -16.269531 12.34375 -16.472656 12.34375 -16.703125 L 12.34375 -23.203125 C 12.34375 -23.441406 12.257812 -23.644531 12.09375 -23.8125 C 11.9375 -23.988281 11.742188 -24.078125 11.515625 -24.078125 Z M 8.28125 -24.078125 "/></g></g></g><g fill="#ff7a47" fill-opacity="1"><g transform="translate(274.148346, 133.913992)"><g><path d="M 12.265625 -28.21875 L 18.359375 -28.21875 L 18.359375 -5.328125 C 18.359375 -1.484375 16.554688 0.4375 12.953125 0.4375 L 7.546875 0.4375 C 3.941406 0.4375 2.140625 -1.484375 2.140625 -5.328125 L 2.140625 -28.21875 L 8.25 -28.21875 L 8.25 -4.796875 C 8.25 -4.566406 8.328125 -4.363281 8.484375 -4.1875 C 8.640625 -4.007812 8.835938 -3.921875 9.078125 -3.921875 L 11.4375 -3.921875 C 11.664062 -3.921875 11.859375 -4.007812 12.015625 -4.1875 C 12.179688 -4.363281 12.265625 -4.566406 12.265625 -4.796875 Z M 12.265625 -28.21875 "/></g></g></g><g fill="#ff7a47" fill-opacity="1"><g transform="translate(303.374049, 133.913992)"><g><path d="M 12.6875 -4.625 L 12.6875 -8.984375 L 18.5 -8.984375 L 18.5 -5.328125 C 18.5 -1.484375 16.695312 0.4375 13.09375 0.4375 L 7.59375 0.4375 C 3.988281 0.4375 2.1875 -1.484375 2.1875 -5.328125 L 2.1875 -22.90625 C 2.1875 -26.738281 3.988281 -28.65625 7.59375 -28.65625 L 13.09375 -28.65625 C 16.695312 -28.65625 18.5 -26.738281 18.5 -22.90625 L 18.5 -20.234375 L 12.6875 -20.234375 L 12.6875 -23.640625 C 12.6875 -23.878906 12.609375 -24.082031 12.453125 -24.25 C 12.296875 -24.425781 12.097656 -24.515625 11.859375 -24.515625 L 9.125 -24.515625 C 8.882812 -24.515625 8.679688 -24.425781 8.515625 -24.25 C 8.359375 -24.082031 8.28125 -23.878906 8.28125 -23.640625 L 8.28125 -4.625 C 8.28125 -4.394531 8.359375 -4.191406 8.515625 -4.015625 C 8.679688 -3.835938 8.882812 -3.75 9.125 -3.75 L 11.859375 -3.75 C 12.097656 -3.75 12.296875 -3.835938 12.453125 -4.015625 C 12.609375 -4.191406 12.6875 -4.394531 12.6875 -4.625 Z M 12.6875 -4.625 "/></g></g></g><g fill="#ff7a47" fill-opacity="1"><g transform="translate(332.207185, 133.913992)"><g><path d="M 0.5625 -23.03125 L 0.5625 -28.21875 L 15.828125 -28.21875 L 15.828125 -23.03125 L 11.25 -23.03125 L 11.25 0 L 5.140625 0 L 5.140625 -23.03125 Z M 0.5625 -23.03125 "/></g></g></g><g fill="#000000" fill-opacity="1"><g transform="translate(357.518017, 133.913992)"><g/></g></g><g fill="#000000" fill-opacity="1"><g transform="translate(179.215277, 170.388358)"><g><path d="M 5.0625 -3.09375 L 9.1875 -3.09375 L 9.1875 0 L 1.328125 0 L 1.328125 -17.21875 L 9.1875 -17.21875 L 9.1875 -14.1875 L 5.0625 -14.1875 L 5.0625 -10.140625 L 8.921875 -10.140625 L 8.921875 -7.21875 L 5.0625 -7.21875 Z M 5.0625 -3.09375 "/></g></g></g><g fill="#000000" fill-opacity="1"><g transform="translate(194.631852, 170.388358)"><g><path d="M 11.203125 0 L 7.484375 0 L 7.484375 -14.296875 C 7.484375 -14.441406 7.429688 -14.566406 7.328125 -14.671875 C 7.234375 -14.773438 7.113281 -14.828125 6.96875 -14.828125 L 5.53125 -14.828125 C 5.394531 -14.828125 5.273438 -14.773438 5.171875 -14.671875 C 5.078125 -14.566406 5.03125 -14.441406 5.03125 -14.296875 L 5.03125 0 L 1.296875 0 L 1.296875 -13.984375 C 1.296875 -16.328125 2.398438 -17.5 4.609375 -17.5 L 7.90625 -17.5 C 10.101562 -17.5 11.203125 -16.328125 11.203125 -13.984375 Z M 11.203125 0 "/></g></g></g><g fill="#000000" fill-opacity="1"><g transform="translate(212.418053, 170.388358)"><g><path d="M 6.359375 -6.84375 L 6.359375 -9.578125 L 11.28125 -9.578125 L 11.28125 -3.25 C 11.28125 -0.90625 10.179688 0.265625 7.984375 0.265625 L 4.625 0.265625 C 2.425781 0.265625 1.328125 -0.90625 1.328125 -3.25 L 1.328125 -13.984375 C 1.328125 -16.328125 2.425781 -17.5 4.625 -17.5 L 7.984375 -17.5 C 10.179688 -17.5 11.28125 -16.328125 11.28125 -13.984375 L 11.28125 -12.359375 L 7.75 -12.359375 L 7.75 -14.4375 C 7.75 -14.570312 7.695312 -14.691406 7.59375 -14.796875 C 7.5 -14.910156 7.378906 -14.96875 7.234375 -14.96875 L 5.5625 -14.96875 C 5.425781 -14.96875 5.304688 -14.910156 5.203125 -14.796875 C 5.109375 -14.691406 5.0625 -14.570312 5.0625 -14.4375 L 5.0625 -2.828125 C 5.0625 -2.679688 5.109375 -2.554688 5.203125 -2.453125 C 5.304688 -2.347656 5.425781 -2.296875 5.5625 -2.296875 L 7.234375 -2.296875 C 7.378906 -2.296875 7.5 -2.347656 7.59375 -2.453125 C 7.695312 -2.554688 7.75 -2.679688 7.75 -2.828125 L 7.75 -6.84375 Z M 6.359375 -6.84375 "/></g></g></g><g fill="#000000" fill-opacity="1"><g transform="translate(229.831508, 170.388358)"><g><path d="M 5.0625 -17.21875 L 5.0625 0 L 1.328125 0 L 1.328125 -17.21875 Z M 5.0625 -17.21875 "/></g></g></g><g fill="#000000" fill-opacity="1"><g transform="translate(241.73358, 170.388358)"><g><path d="M 11.203125 0 L 7.484375 0 L 7.484375 -14.296875 C 7.484375 -14.441406 7.429688 -14.566406 7.328125 -14.671875 C 7.234375 -14.773438 7.113281 -14.828125 6.96875 -14.828125 L 5.53125 -14.828125 C 5.394531 -14.828125 5.273438 -14.773438 5.171875 -14.671875 C 5.078125 -14.566406 5.03125 -14.441406 5.03125 -14.296875 L 5.03125 0 L 1.296875 0 L 1.296875 -13.984375 C 1.296875 -16.328125 2.398438 -17.5 4.609375 -17.5 L 7.90625 -17.5 C 10.101562 -17.5 11.203125 -16.328125 11.203125 -13.984375 Z M 11.203125 0 "/></g></g></g><g fill="#000000" fill-opacity="1"><g transform="translate(259.519781, 170.388358)"><g><path d="M 5.0625 -3.09375 L 9.1875 -3.09375 L 9.1875 0 L 1.328125 0 L 1.328125 -17.21875 L 9.1875 -17.21875 L 9.1875 -14.1875 L 5.0625 -14.1875 L 5.0625 -10.140625 L 8.921875 -10.140625 L 8.921875 -7.21875 L 5.0625 -7.21875 Z M 5.0625 -3.09375 "/></g></g></g><g fill="#000000" fill-opacity="1"><g transform="translate(274.936356, 170.388358)"><g><path d="M 5.0625 -3.09375 L 9.1875 -3.09375 L 9.1875 0 L 1.328125 0 L 1.328125 -17.21875 L 9.1875 -17.21875 L 9.1875 -14.1875 L 5.0625 -14.1875 L 5.0625 -10.140625 L 8.921875 -10.140625 L 8.921875 -7.21875 L 5.0625 -7.21875 Z M 5.0625 -3.09375 "/></g></g></g><g fill="#000000" fill-opacity="1"><g transform="translate(290.352932, 170.388358)"><g><path d="M 5.0625 -7.0625 L 5.0625 0 L 1.328125 0 L 1.328125 -17.21875 L 7.953125 -17.21875 C 10.160156 -17.21875 11.265625 -16.050781 11.265625 -13.71875 L 11.265625 -11.71875 C 11.265625 -10.289062 10.757812 -9.382812 9.75 -9 C 10.632812 -8.675781 11.078125 -7.945312 11.078125 -6.8125 L 11.078125 0 L 7.34375 0 L 7.34375 -6.515625 C 7.34375 -6.878906 7.175781 -7.0625 6.84375 -7.0625 Z M 5.0625 -14.703125 L 5.0625 -9.671875 L 7.03125 -9.671875 C 7.164062 -9.671875 7.28125 -9.722656 7.375 -9.828125 C 7.476562 -9.929688 7.53125 -10.054688 7.53125 -10.203125 L 7.53125 -14.171875 C 7.53125 -14.304688 7.476562 -14.425781 7.375 -14.53125 C 7.28125 -14.644531 7.164062 -14.703125 7.03125 -14.703125 Z M 5.0625 -14.703125 "/></g></g></g><g fill="#000000" fill-opacity="1"><g transform="translate(308.085883, 170.388358)"><g><path d="M 5.0625 -17.21875 L 5.0625 0 L 1.328125 0 L 1.328125 -17.21875 Z M 5.0625 -17.21875 "/></g></g></g><g fill="#000000" fill-opacity="1"><g transform="translate(319.987955, 170.388358)"><g><path d="M 11.203125 0 L 7.484375 0 L 7.484375 -14.296875 C 7.484375 -14.441406 7.429688 -14.566406 7.328125 -14.671875 C 7.234375 -14.773438 7.113281 -14.828125 6.96875 -14.828125 L 5.53125 -14.828125 C 5.394531 -14.828125 5.273438 -14.773438 5.171875 -14.671875 C 5.078125 -14.566406 5.03125 -14.441406 5.03125 -14.296875 L 5.03125 0 L 1.296875 0 L 1.296875 -13.984375 C 1.296875 -16.328125 2.398438 -17.5 4.609375 -17.5 L 7.90625 -17.5 C 10.101562 -17.5 11.203125 -16.328125 11.203125 -13.984375 Z M 11.203125 0 "/></g></g></g><g fill="#000000" fill-opacity="1"><g transform="translate(337.774156, 170.388358)"><g><path d="M 6.359375 -6.84375 L 6.359375 -9.578125 L 11.28125 -9.578125 L 11.28125 -3.25 C 11.28125 -0.90625 10.179688 0.265625 7.984375 0.265625 L 4.625 0.265625 C 2.425781 0.265625 1.328125 -0.90625 1.328125 -3.25 L 1.328125 -13.984375 C 1.328125 -16.328125 2.425781 -17.5 4.625 -17.5 L 7.984375 -17.5 C 10.179688 -17.5 11.28125 -16.328125 11.28125 -13.984375 L 11.28125 -12.359375 L 7.75 -12.359375 L 7.75 -14.4375 C 7.75 -14.570312 7.695312 -14.691406 7.59375 -14.796875 C 7.5 -14.910156 7.378906 -14.96875 7.234375 -14.96875 L 5.5625 -14.96875 C 5.425781 -14.96875 5.304688 -14.910156 5.203125 -14.796875 C 5.109375 -14.691406 5.0625 -14.570312 5.0625 -14.4375 L 5.0625 -2.828125 C 5.0625 -2.679688 5.109375 -2.554688 5.203125 -2.453125 C 5.304688 -2.347656 5.425781 -2.296875 5.5625 -2.296875 L 7.234375 -2.296875 C 7.378906 -2.296875 7.5 -2.347656 7.59375 -2.453125 C 7.695312 -2.554688 7.75 -2.679688 7.75 -2.828125 L 7.75 -6.84375 Z M 6.359375 -6.84375 "/></g></g></g></svg>