<svg xmlns="http://www.w3.org/2000/svg" xmlns:xlink="http://www.w3.org/1999/xlink" width="500" zoomAndPan="magnify" viewBox="0 0 375 225" height="300" preserveAspectRatio="xMidYMid meet" version="1.0"><defs><g/><clipPath id="8c0e8a1ef2"><path d="M 22.5 22.5 L 190.5 22.5 L 190.5 202.5 L 22.5 202.5 Z M 22.5 22.5 " clip-rule="nonzero"/></clipPath></defs><g clip-path="url(#8c0e8a1ef2)"><path fill="#ff7a47" d="M 85.402344 150.359375 L 85.402344 143.589844 L 78.625 143.589844 L 78.625 150.359375 Z M 175.03125 202.503906 L 175.03125 162.292969 L 146.382812 135.160156 L 182.738281 96.878906 L 190.515625 88.691406 L 184.503906 79.117188 L 163.261719 46.179688 L 152.699219 29.347656 L 148.40625 22.515625 L 69.496094 22.515625 L 36.179688 51.667969 L 132.382812 51.667969 L 139.488281 62.992188 L 148.984375 77.222656 L 153.886719 85.027344 L 125.378906 115.046875 L 112.742188 102.964844 L 101.472656 92.234375 L 66.652344 125.550781 L 66.652344 137.023438 L 22.5 179.070312 L 22.5 167.445312 L 37.46875 153.34375 L 37.46875 103.984375 L 66.652344 103.984375 L 66.652344 125.550781 L 73.101562 119.382812 L 73.101562 130.886719 L 86.46875 118.152344 L 91.628906 123.066406 L 98.859375 129.9375 L 118.316406 148.476562 Z M 85.402344 141.46875 L 85.402344 134.695312 L 78.625 134.695312 L 78.625 141.46875 Z M 87.527344 134.695312 L 87.527344 141.46875 L 94.304688 141.46875 L 94.304688 134.695312 Z M 94.304688 143.589844 L 87.527344 143.589844 L 87.527344 150.359375 L 94.304688 150.359375 Z M 94.304688 143.589844 " fill-opacity="1" fill-rule="evenodd"/></g><g fill="#000000" fill-opacity="1"><g transform="translate(202.704337, 118.415374)"><g><path d="M 4.109375 -5.734375 L 4.109375 0 L 1.078125 0 L 1.078125 -13.984375 L 6.46875 -13.984375 C 8.25 -13.984375 9.140625 -13.035156 9.140625 -11.140625 L 9.140625 -9.515625 C 9.140625 -8.359375 8.734375 -7.625 7.921875 -7.3125 C 8.640625 -7.050781 9 -6.457031 9 -5.53125 L 9 0 L 5.96875 0 L 5.96875 -5.296875 C 5.96875 -5.585938 5.832031 -5.734375 5.5625 -5.734375 Z M 4.109375 -11.9375 L 4.109375 -7.84375 L 5.703125 -7.84375 C 5.816406 -7.84375 5.914062 -7.882812 6 -7.96875 C 6.082031 -8.0625 6.125 -8.164062 6.125 -8.28125 L 6.125 -11.5 C 6.125 -11.613281 6.082031 -11.710938 6 -11.796875 C 5.914062 -11.890625 5.816406 -11.9375 5.703125 -11.9375 Z M 4.109375 -11.9375 "/></g></g></g><g fill="#000000" fill-opacity="1"><g transform="translate(217.105493, 118.415374)"><g><path d="M 1.28125 -1.328125 C 1.28125 -1.765625 1.429688 -2.132812 1.734375 -2.4375 C 2.035156 -2.738281 2.398438 -2.890625 2.828125 -2.890625 C 3.265625 -2.890625 3.632812 -2.738281 3.9375 -2.4375 C 4.238281 -2.132812 4.390625 -1.765625 4.390625 -1.328125 C 4.390625 -0.898438 4.238281 -0.535156 3.9375 -0.234375 C 3.632812 0.0664062 3.265625 0.21875 2.828125 0.21875 C 2.398438 0.21875 2.035156 0.0664062 1.734375 -0.234375 C 1.429688 -0.535156 1.28125 -0.898438 1.28125 -1.328125 Z M 1.28125 -1.328125 "/></g></g></g><g fill="#000000" fill-opacity="1"><g transform="translate(226.987835, 118.415374)"><g><path d="M 8.84375 -10.3125 L 5.96875 -10.3125 L 5.96875 -11.421875 C 5.96875 -11.535156 5.925781 -11.632812 5.84375 -11.71875 C 5.769531 -11.800781 5.675781 -11.84375 5.5625 -11.84375 L 4.375 -11.84375 C 4.25 -11.84375 4.144531 -11.800781 4.0625 -11.71875 C 3.988281 -11.632812 3.953125 -11.535156 3.953125 -11.421875 L 3.953125 -8.9375 C 3.953125 -8.820312 3.988281 -8.71875 4.0625 -8.625 C 4.144531 -8.539062 4.25 -8.5 4.375 -8.5 L 6.3125 -8.5 C 8.101562 -8.46875 9 -7.515625 9 -5.640625 L 9 -2.640625 C 9 -0.734375 8.101562 0.21875 6.3125 0.21875 L 3.765625 0.21875 C 1.972656 0.21875 1.078125 -0.734375 1.078125 -2.640625 L 1.078125 -4.09375 L 3.953125 -4.09375 L 3.953125 -2.53125 C 3.953125 -2.414062 3.988281 -2.3125 4.0625 -2.21875 C 4.144531 -2.132812 4.25 -2.09375 4.375 -2.09375 L 5.703125 -2.09375 C 5.816406 -2.09375 5.914062 -2.132812 6 -2.21875 C 6.082031 -2.3125 6.125 -2.414062 6.125 -2.53125 L 6.125 -5.28125 C 6.125 -5.394531 6.082031 -5.492188 6 -5.578125 C 5.914062 -5.660156 5.816406 -5.703125 5.703125 -5.703125 L 3.765625 -5.703125 C 1.972656 -5.703125 1.078125 -6.65625 1.078125 -8.5625 L 1.078125 -11.359375 C 1.078125 -13.253906 1.972656 -14.203125 3.765625 -14.203125 L 6.15625 -14.203125 C 7.945312 -14.203125 8.84375 -13.253906 8.84375 -11.359375 Z M 8.84375 -10.3125 "/></g></g></g><g fill="#000000" fill-opacity="1"><g transform="translate(241.28089, 118.415374)"><g><path d="M 0.28125 -11.421875 L 0.28125 -13.984375 L 7.84375 -13.984375 L 7.84375 -11.421875 L 5.578125 -11.421875 L 5.578125 0 L 2.546875 0 L 2.546875 -11.421875 Z M 0.28125 -11.421875 "/></g></g></g><g fill="#000000" fill-opacity="1"><g transform="translate(253.822632, 118.415374)"><g><path d="M 4.109375 -5.734375 L 4.109375 0 L 1.078125 0 L 1.078125 -13.984375 L 6.46875 -13.984375 C 8.25 -13.984375 9.140625 -13.035156 9.140625 -11.140625 L 9.140625 -9.515625 C 9.140625 -8.359375 8.734375 -7.625 7.921875 -7.3125 C 8.640625 -7.050781 9 -6.457031 9 -5.53125 L 9 0 L 5.96875 0 L 5.96875 -5.296875 C 5.96875 -5.585938 5.832031 -5.734375 5.5625 -5.734375 Z M 4.109375 -11.9375 L 4.109375 -7.84375 L 5.703125 -7.84375 C 5.816406 -7.84375 5.914062 -7.882812 6 -7.96875 C 6.082031 -8.0625 6.125 -8.164062 6.125 -8.28125 L 6.125 -11.5 C 6.125 -11.613281 6.082031 -11.710938 6 -11.796875 C 5.914062 -11.890625 5.816406 -11.9375 5.703125 -11.9375 Z M 4.109375 -11.9375 "/></g></g></g><g fill="#000000" fill-opacity="1"><g transform="translate(268.223785, 118.415374)"><g><path d="M 6.078125 -13.984375 L 9.109375 -13.984375 L 9.109375 -2.640625 C 9.109375 -0.734375 8.210938 0.21875 6.421875 0.21875 L 3.734375 0.21875 C 1.953125 0.21875 1.0625 -0.734375 1.0625 -2.640625 L 1.0625 -13.984375 L 4.09375 -13.984375 L 4.09375 -2.375 C 4.09375 -2.257812 4.128906 -2.160156 4.203125 -2.078125 C 4.285156 -1.992188 4.382812 -1.953125 4.5 -1.953125 L 5.671875 -1.953125 C 5.785156 -1.953125 5.878906 -1.992188 5.953125 -2.078125 C 6.035156 -2.160156 6.078125 -2.257812 6.078125 -2.375 Z M 6.078125 -13.984375 "/></g></g></g><g fill="#000000" fill-opacity="1"><g transform="translate(282.711421, 118.415374)"><g><path d="M 6.296875 -2.296875 L 6.296875 -4.453125 L 9.171875 -4.453125 L 9.171875 -2.640625 C 9.171875 -0.734375 8.273438 0.21875 6.484375 0.21875 L 3.765625 0.21875 C 1.972656 0.21875 1.078125 -0.734375 1.078125 -2.640625 L 1.078125 -11.359375 C 1.078125 -13.253906 1.972656 -14.203125 3.765625 -14.203125 L 6.484375 -14.203125 C 8.273438 -14.203125 9.171875 -13.253906 9.171875 -11.359375 L 9.171875 -10.03125 L 6.296875 -10.03125 L 6.296875 -11.71875 C 6.296875 -11.832031 6.253906 -11.929688 6.171875 -12.015625 C 6.097656 -12.109375 6 -12.15625 5.875 -12.15625 L 4.515625 -12.15625 C 4.398438 -12.15625 4.300781 -12.109375 4.21875 -12.015625 C 4.144531 -11.929688 4.109375 -11.832031 4.109375 -11.71875 L 4.109375 -2.296875 C 4.109375 -2.179688 4.144531 -2.078125 4.21875 -1.984375 C 4.300781 -1.898438 4.398438 -1.859375 4.515625 -1.859375 L 5.875 -1.859375 C 6 -1.859375 6.097656 -1.898438 6.171875 -1.984375 C 6.253906 -2.078125 6.296875 -2.179688 6.296875 -2.296875 Z M 6.296875 -2.296875 "/></g></g></g><g fill="#000000" fill-opacity="1"><g transform="translate(297.004474, 118.415374)"><g><path d="M 0.28125 -11.421875 L 0.28125 -13.984375 L 7.84375 -13.984375 L 7.84375 -11.421875 L 5.578125 -11.421875 L 5.578125 0 L 2.546875 0 L 2.546875 -11.421875 Z M 0.28125 -11.421875 "/></g></g></g><g fill="#ff7a47" fill-opacity="1"><g transform="translate(202.704337, 148.415373)"><g><path d="M 4.109375 -2.515625 L 7.453125 -2.515625 L 7.453125 0 L 1.078125 0 L 1.078125 -13.984375 L 7.453125 -13.984375 L 7.453125 -11.53125 L 4.109375 -11.53125 L 4.109375 -8.234375 L 7.25 -8.234375 L 7.25 -5.859375 L 4.109375 -5.859375 Z M 4.109375 -2.515625 "/></g></g></g><g fill="#ff7a47" fill-opacity="1"><g transform="translate(215.224462, 148.415373)"><g><path d="M 9.109375 0 L 6.078125 0 L 6.078125 -11.609375 C 6.078125 -11.722656 6.035156 -11.820312 5.953125 -11.90625 C 5.878906 -12 5.785156 -12.046875 5.671875 -12.046875 L 4.5 -12.046875 C 4.382812 -12.046875 4.285156 -12 4.203125 -11.90625 C 4.128906 -11.820312 4.09375 -11.722656 4.09375 -11.609375 L 4.09375 0 L 1.0625 0 L 1.0625 -11.359375 C 1.0625 -13.253906 1.953125 -14.203125 3.734375 -14.203125 L 6.421875 -14.203125 C 8.210938 -14.203125 9.109375 -13.253906 9.109375 -11.359375 Z M 9.109375 0 "/></g></g></g><g fill="#ff7a47" fill-opacity="1"><g transform="translate(229.668865, 148.415373)"><g><path d="M 5.171875 -5.5625 L 5.171875 -7.78125 L 9.171875 -7.78125 L 9.171875 -2.640625 C 9.171875 -0.734375 8.273438 0.21875 6.484375 0.21875 L 3.765625 0.21875 C 1.972656 0.21875 1.078125 -0.734375 1.078125 -2.640625 L 1.078125 -11.359375 C 1.078125 -13.253906 1.972656 -14.203125 3.765625 -14.203125 L 6.484375 -14.203125 C 8.273438 -14.203125 9.171875 -13.253906 9.171875 -11.359375 L 9.171875 -10.03125 L 6.296875 -10.03125 L 6.296875 -11.71875 C 6.296875 -11.832031 6.253906 -11.929688 6.171875 -12.015625 C 6.097656 -12.109375 6 -12.15625 5.875 -12.15625 L 4.515625 -12.15625 C 4.398438 -12.15625 4.300781 -12.109375 4.21875 -12.015625 C 4.144531 -11.929688 4.109375 -11.832031 4.109375 -11.71875 L 4.109375 -2.296875 C 4.109375 -2.179688 4.144531 -2.078125 4.21875 -1.984375 C 4.300781 -1.898438 4.398438 -1.859375 4.515625 -1.859375 L 5.875 -1.859375 C 6 -1.859375 6.097656 -1.898438 6.171875 -1.984375 C 6.253906 -2.078125 6.296875 -2.179688 6.296875 -2.296875 L 6.296875 -5.5625 Z M 5.171875 -5.5625 "/></g></g></g><g fill="#ff7a47" fill-opacity="1"><g transform="translate(243.810572, 148.415373)"><g><path d="M 4.109375 -13.984375 L 4.109375 0 L 1.078125 0 L 1.078125 -13.984375 Z M 4.109375 -13.984375 "/></g></g></g><g fill="#ff7a47" fill-opacity="1"><g transform="translate(253.476712, 148.415373)"><g><path d="M 9.109375 0 L 6.078125 0 L 6.078125 -11.609375 C 6.078125 -11.722656 6.035156 -11.820312 5.953125 -11.90625 C 5.878906 -12 5.785156 -12.046875 5.671875 -12.046875 L 4.5 -12.046875 C 4.382812 -12.046875 4.285156 -12 4.203125 -11.90625 C 4.128906 -11.820312 4.09375 -11.722656 4.09375 -11.609375 L 4.09375 0 L 1.0625 0 L 1.0625 -11.359375 C 1.0625 -13.253906 1.953125 -14.203125 3.734375 -14.203125 L 6.421875 -14.203125 C 8.210938 -14.203125 9.109375 -13.253906 9.109375 -11.359375 Z M 9.109375 0 "/></g></g></g><g fill="#ff7a47" fill-opacity="1"><g transform="translate(267.921112, 148.415373)"><g><path d="M 4.109375 -2.515625 L 7.453125 -2.515625 L 7.453125 0 L 1.078125 0 L 1.078125 -13.984375 L 7.453125 -13.984375 L 7.453125 -11.53125 L 4.109375 -11.53125 L 4.109375 -8.234375 L 7.25 -8.234375 L 7.25 -5.859375 L 4.109375 -5.859375 Z M 4.109375 -2.515625 "/></g></g></g><g fill="#ff7a47" fill-opacity="1"><g transform="translate(280.441234, 148.415373)"><g><path d="M 4.109375 -2.515625 L 7.453125 -2.515625 L 7.453125 0 L 1.078125 0 L 1.078125 -13.984375 L 7.453125 -13.984375 L 7.453125 -11.53125 L 4.109375 -11.53125 L 4.109375 -8.234375 L 7.25 -8.234375 L 7.25 -5.859375 L 4.109375 -5.859375 Z M 4.109375 -2.515625 "/></g></g></g><g fill="#ff7a47" fill-opacity="1"><g transform="translate(292.961356, 148.415373)"><g><path d="M 4.109375 -5.734375 L 4.109375 0 L 1.078125 0 L 1.078125 -13.984375 L 6.46875 -13.984375 C 8.25 -13.984375 9.140625 -13.035156 9.140625 -11.140625 L 9.140625 -9.515625 C 9.140625 -8.359375 8.734375 -7.625 7.921875 -7.3125 C 8.640625 -7.050781 9 -6.457031 9 -5.53125 L 9 0 L 5.96875 0 L 5.96875 -5.296875 C 5.96875 -5.585938 5.832031 -5.734375 5.5625 -5.734375 Z M 4.109375 -11.9375 L 4.109375 -7.84375 L 5.703125 -7.84375 C 5.816406 -7.84375 5.914062 -7.882812 6 -7.96875 C 6.082031 -8.0625 6.125 -8.164062 6.125 -8.28125 L 6.125 -11.5 C 6.125 -11.613281 6.082031 -11.710938 6 -11.796875 C 5.914062 -11.890625 5.816406 -11.9375 5.703125 -11.9375 Z M 4.109375 -11.9375 "/></g></g></g><g fill="#ff7a47" fill-opacity="1"><g transform="translate(307.362509, 148.415373)"><g><path d="M 4.109375 -13.984375 L 4.109375 0 L 1.078125 0 L 1.078125 -13.984375 Z M 4.109375 -13.984375 "/></g></g></g><g fill="#ff7a47" fill-opacity="1"><g transform="translate(317.028647, 148.415373)"><g><path d="M 9.109375 0 L 6.078125 0 L 6.078125 -11.609375 C 6.078125 -11.722656 6.035156 -11.820312 5.953125 -11.90625 C 5.878906 -12 5.785156 -12.046875 5.671875 -12.046875 L 4.5 -12.046875 C 4.382812 -12.046875 4.285156 -12 4.203125 -11.90625 C 4.128906 -11.820312 4.09375 -11.722656 4.09375 -11.609375 L 4.09375 0 L 1.0625 0 L 1.0625 -11.359375 C 1.0625 -13.253906 1.953125 -14.203125 3.734375 -14.203125 L 6.421875 -14.203125 C 8.210938 -14.203125 9.109375 -13.253906 9.109375 -11.359375 Z M 9.109375 0 "/></g></g></g><g fill="#ff7a47" fill-opacity="1"><g transform="translate(331.473047, 148.415373)"><g><path d="M 5.171875 -5.5625 L 5.171875 -7.78125 L 9.171875 -7.78125 L 9.171875 -2.640625 C 9.171875 -0.734375 8.273438 0.21875 6.484375 0.21875 L 3.765625 0.21875 C 1.972656 0.21875 1.078125 -0.734375 1.078125 -2.640625 L 1.078125 -11.359375 C 1.078125 -13.253906 1.972656 -14.203125 3.765625 -14.203125 L 6.484375 -14.203125 C 8.273438 -14.203125 9.171875 -13.253906 9.171875 -11.359375 L 9.171875 -10.03125 L 6.296875 -10.03125 L 6.296875 -11.71875 C 6.296875 -11.832031 6.253906 -11.929688 6.171875 -12.015625 C 6.097656 -12.109375 6 -12.15625 5.875 -12.15625 L 4.515625 -12.15625 C 4.398438 -12.15625 4.300781 -12.109375 4.21875 -12.015625 C 4.144531 -11.929688 4.109375 -11.832031 4.109375 -11.71875 L 4.109375 -2.296875 C 4.109375 -2.179688 4.144531 -2.078125 4.21875 -1.984375 C 4.300781 -1.898438 4.398438 -1.859375 4.515625 -1.859375 L 5.875 -1.859375 C 6 -1.859375 6.097656 -1.898438 6.171875 -1.984375 C 6.253906 -2.078125 6.296875 -2.179688 6.296875 -2.296875 L 6.296875 -5.5625 Z M 5.171875 -5.5625 "/></g></g></g></svg>