<svg xmlns="http://www.w3.org/2000/svg" xmlns:xlink="http://www.w3.org/1999/xlink" width="500" zoomAndPan="magnify" viewBox="0 0 375 374.999991" height="500" preserveAspectRatio="xMidYMid meet" version="1.0"><defs><g/><clipPath id="ed9f01f5f1"><path d="M 151.066406 122.621094 L 223.816406 122.621094 L 223.816406 200.621094 L 151.066406 200.621094 Z M 151.066406 122.621094 " clip-rule="nonzero"/></clipPath></defs><g fill="#000000" fill-opacity="1"><g transform="translate(135.509636, 228.12958)"><g><path d="M 4.171875 -5.8125 L 4.171875 0 L 1.09375 0 L 1.09375 -14.1875 L 6.5625 -14.1875 C 8.375 -14.1875 9.28125 -13.222656 9.28125 -11.296875 L 9.28125 -9.65625 C 9.28125 -8.476562 8.863281 -7.734375 8.03125 -7.421875 C 8.757812 -7.148438 9.125 -6.546875 9.125 -5.609375 L 9.125 0 L 6.0625 0 L 6.0625 -5.375 C 6.0625 -5.664062 5.921875 -5.8125 5.640625 -5.8125 Z M 4.171875 -12.109375 L 4.171875 -7.96875 L 5.796875 -7.96875 C 5.910156 -7.96875 6.003906 -8.007812 6.078125 -8.09375 C 6.160156 -8.1875 6.203125 -8.289062 6.203125 -8.40625 L 6.203125 -11.671875 C 6.203125 -11.785156 6.160156 -11.882812 6.078125 -11.96875 C 6.003906 -12.0625 5.910156 -12.109375 5.796875 -12.109375 Z M 4.171875 -12.109375 "/></g></g></g><g fill="#000000" fill-opacity="1"><g transform="translate(150.122202, 228.12958)"><g><path d="M 1.296875 -1.359375 C 1.296875 -1.796875 1.445312 -2.164062 1.75 -2.46875 C 2.0625 -2.78125 2.4375 -2.9375 2.875 -2.9375 C 3.3125 -2.9375 3.679688 -2.78125 3.984375 -2.46875 C 4.296875 -2.164062 4.453125 -1.796875 4.453125 -1.359375 C 4.453125 -0.921875 4.296875 -0.546875 3.984375 -0.234375 C 3.679688 0.0664062 3.3125 0.21875 2.875 0.21875 C 2.4375 0.21875 2.0625 0.0664062 1.75 -0.234375 C 1.445312 -0.546875 1.296875 -0.921875 1.296875 -1.359375 Z M 1.296875 -1.359375 "/></g></g></g><g fill="#000000" fill-opacity="1"><g transform="translate(160.149843, 228.12958)"><g><path d="M 8.96875 -10.46875 L 6.0625 -10.46875 L 6.0625 -11.578125 C 6.0625 -11.703125 6.019531 -11.804688 5.9375 -11.890625 C 5.851562 -11.972656 5.753906 -12.015625 5.640625 -12.015625 L 4.4375 -12.015625 C 4.3125 -12.015625 4.207031 -11.972656 4.125 -11.890625 C 4.050781 -11.804688 4.015625 -11.703125 4.015625 -11.578125 L 4.015625 -9.0625 C 4.015625 -8.945312 4.050781 -8.84375 4.125 -8.75 C 4.207031 -8.664062 4.3125 -8.625 4.4375 -8.625 L 6.40625 -8.625 C 8.21875 -8.59375 9.125 -7.625 9.125 -5.71875 L 9.125 -2.671875 C 9.125 -0.742188 8.21875 0.21875 6.40625 0.21875 L 3.8125 0.21875 C 2 0.21875 1.09375 -0.742188 1.09375 -2.671875 L 1.09375 -4.140625 L 4.015625 -4.140625 L 4.015625 -2.5625 C 4.015625 -2.445312 4.050781 -2.34375 4.125 -2.25 C 4.207031 -2.164062 4.3125 -2.125 4.4375 -2.125 L 5.796875 -2.125 C 5.910156 -2.125 6.003906 -2.164062 6.078125 -2.25 C 6.160156 -2.34375 6.203125 -2.445312 6.203125 -2.5625 L 6.203125 -5.359375 C 6.203125 -5.472656 6.160156 -5.570312 6.078125 -5.65625 C 6.003906 -5.75 5.910156 -5.796875 5.796875 -5.796875 L 3.8125 -5.796875 C 2 -5.796875 1.09375 -6.757812 1.09375 -8.6875 L 1.09375 -11.515625 C 1.09375 -13.441406 2 -14.40625 3.8125 -14.40625 L 6.25 -14.40625 C 8.0625 -14.40625 8.96875 -13.441406 8.96875 -11.515625 Z M 8.96875 -10.46875 "/></g></g></g><g fill="#000000" fill-opacity="1"><g transform="translate(174.652719, 228.12958)"><g><path d="M 0.28125 -11.578125 L 0.28125 -14.1875 L 7.96875 -14.1875 L 7.96875 -11.578125 L 5.65625 -11.578125 L 5.65625 0 L 2.59375 0 L 2.59375 -11.578125 Z M 0.28125 -11.578125 "/></g></g></g><g fill="#000000" fill-opacity="1"><g transform="translate(187.378669, 228.12958)"><g><path d="M 4.171875 -5.8125 L 4.171875 0 L 1.09375 0 L 1.09375 -14.1875 L 6.5625 -14.1875 C 8.375 -14.1875 9.28125 -13.222656 9.28125 -11.296875 L 9.28125 -9.65625 C 9.28125 -8.476562 8.863281 -7.734375 8.03125 -7.421875 C 8.757812 -7.148438 9.125 -6.546875 9.125 -5.609375 L 9.125 0 L 6.0625 0 L 6.0625 -5.375 C 6.0625 -5.664062 5.921875 -5.8125 5.640625 -5.8125 Z M 4.171875 -12.109375 L 4.171875 -7.96875 L 5.796875 -7.96875 C 5.910156 -7.96875 6.003906 -8.007812 6.078125 -8.09375 C 6.160156 -8.1875 6.203125 -8.289062 6.203125 -8.40625 L 6.203125 -11.671875 C 6.203125 -11.785156 6.160156 -11.882812 6.078125 -11.96875 C 6.003906 -12.0625 5.910156 -12.109375 5.796875 -12.109375 Z M 4.171875 -12.109375 "/></g></g></g><g fill="#000000" fill-opacity="1"><g transform="translate(201.991234, 228.12958)"><g><path d="M 6.171875 -14.1875 L 9.234375 -14.1875 L 9.234375 -2.671875 C 9.234375 -0.742188 8.328125 0.21875 6.515625 0.21875 L 3.796875 0.21875 C 1.984375 0.21875 1.078125 -0.742188 1.078125 -2.671875 L 1.078125 -14.1875 L 4.140625 -14.1875 L 4.140625 -2.40625 C 4.140625 -2.289062 4.179688 -2.1875 4.265625 -2.09375 C 4.347656 -2.007812 4.445312 -1.96875 4.5625 -1.96875 L 5.75 -1.96875 C 5.863281 -1.96875 5.960938 -2.007812 6.046875 -2.09375 C 6.128906 -2.1875 6.171875 -2.289062 6.171875 -2.40625 Z M 6.171875 -14.1875 "/></g></g></g><g fill="#000000" fill-opacity="1"><g transform="translate(216.691552, 228.12958)"><g><path d="M 6.390625 -2.328125 L 6.390625 -4.515625 L 9.296875 -4.515625 L 9.296875 -2.671875 C 9.296875 -0.742188 8.390625 0.21875 6.578125 0.21875 L 3.8125 0.21875 C 2 0.21875 1.09375 -0.742188 1.09375 -2.671875 L 1.09375 -11.515625 C 1.09375 -13.441406 2 -14.40625 3.8125 -14.40625 L 6.578125 -14.40625 C 8.390625 -14.40625 9.296875 -13.441406 9.296875 -11.515625 L 9.296875 -10.171875 L 6.390625 -10.171875 L 6.390625 -11.890625 C 6.390625 -12.003906 6.347656 -12.101562 6.265625 -12.1875 C 6.179688 -12.28125 6.082031 -12.328125 5.96875 -12.328125 L 4.578125 -12.328125 C 4.460938 -12.328125 4.363281 -12.28125 4.28125 -12.1875 C 4.207031 -12.101562 4.171875 -12.003906 4.171875 -11.890625 L 4.171875 -2.328125 C 4.171875 -2.210938 4.207031 -2.109375 4.28125 -2.015625 C 4.363281 -1.929688 4.460938 -1.890625 4.578125 -1.890625 L 5.96875 -1.890625 C 6.082031 -1.890625 6.179688 -1.929688 6.265625 -2.015625 C 6.347656 -2.109375 6.390625 -2.210938 6.390625 -2.328125 Z M 6.390625 -2.328125 "/></g></g></g><g fill="#000000" fill-opacity="1"><g transform="translate(231.194426, 228.12958)"><g><path d="M 0.28125 -11.578125 L 0.28125 -14.1875 L 7.96875 -14.1875 L 7.96875 -11.578125 L 5.65625 -11.578125 L 5.65625 0 L 2.59375 0 L 2.59375 -11.578125 Z M 0.28125 -11.578125 "/></g></g></g><g fill="#ff7a47" fill-opacity="1"><g transform="translate(117.216669, 258.129578)"><g><path d="M 4.171875 -2.546875 L 7.5625 -2.546875 L 7.5625 0 L 1.09375 0 L 1.09375 -14.1875 L 7.5625 -14.1875 L 7.5625 -11.6875 L 4.171875 -11.6875 L 4.171875 -8.359375 L 7.34375 -8.359375 L 7.34375 -5.9375 L 4.171875 -5.9375 Z M 4.171875 -2.546875 "/></g></g></g><g fill="#ff7a47" fill-opacity="1"><g transform="translate(129.920681, 258.129578)"><g><path d="M 9.234375 0 L 6.171875 0 L 6.171875 -11.78125 C 6.171875 -11.894531 6.128906 -11.992188 6.046875 -12.078125 C 5.960938 -12.171875 5.863281 -12.21875 5.75 -12.21875 L 4.5625 -12.21875 C 4.445312 -12.21875 4.347656 -12.171875 4.265625 -12.078125 C 4.179688 -11.992188 4.140625 -11.894531 4.140625 -11.78125 L 4.140625 0 L 1.078125 0 L 1.078125 -11.515625 C 1.078125 -13.441406 1.984375 -14.40625 3.796875 -14.40625 L 6.515625 -14.40625 C 8.328125 -14.40625 9.234375 -13.441406 9.234375 -11.515625 Z M 9.234375 0 "/></g></g></g><g fill="#ff7a47" fill-opacity="1"><g transform="translate(144.577123, 258.129578)"><g><path d="M 5.25 -5.640625 L 5.25 -7.890625 L 9.296875 -7.890625 L 9.296875 -2.671875 C 9.296875 -0.742188 8.390625 0.21875 6.578125 0.21875 L 3.8125 0.21875 C 2 0.21875 1.09375 -0.742188 1.09375 -2.671875 L 1.09375 -11.515625 C 1.09375 -13.441406 2 -14.40625 3.8125 -14.40625 L 6.578125 -14.40625 C 8.390625 -14.40625 9.296875 -13.441406 9.296875 -11.515625 L 9.296875 -10.171875 L 6.390625 -10.171875 L 6.390625 -11.890625 C 6.390625 -12.003906 6.347656 -12.101562 6.265625 -12.1875 C 6.179688 -12.28125 6.082031 -12.328125 5.96875 -12.328125 L 4.578125 -12.328125 C 4.460938 -12.328125 4.363281 -12.28125 4.28125 -12.1875 C 4.207031 -12.101562 4.171875 -12.003906 4.171875 -11.890625 L 4.171875 -2.328125 C 4.171875 -2.210938 4.207031 -2.109375 4.28125 -2.015625 C 4.363281 -1.929688 4.460938 -1.890625 4.578125 -1.890625 L 5.96875 -1.890625 C 6.082031 -1.890625 6.179688 -1.929688 6.265625 -2.015625 C 6.347656 -2.109375 6.390625 -2.210938 6.390625 -2.328125 L 6.390625 -5.640625 Z M 5.25 -5.640625 "/></g></g></g><g fill="#ff7a47" fill-opacity="1"><g transform="translate(158.926443, 258.129578)"><g><path d="M 4.171875 -14.1875 L 4.171875 0 L 1.09375 0 L 1.09375 -14.1875 Z M 4.171875 -14.1875 "/></g></g></g><g fill="#ff7a47" fill-opacity="1"><g transform="translate(168.73471, 258.129578)"><g><path d="M 9.234375 0 L 6.171875 0 L 6.171875 -11.78125 C 6.171875 -11.894531 6.128906 -11.992188 6.046875 -12.078125 C 5.960938 -12.171875 5.863281 -12.21875 5.75 -12.21875 L 4.5625 -12.21875 C 4.445312 -12.21875 4.347656 -12.171875 4.265625 -12.078125 C 4.179688 -11.992188 4.140625 -11.894531 4.140625 -11.78125 L 4.140625 0 L 1.078125 0 L 1.078125 -11.515625 C 1.078125 -13.441406 1.984375 -14.40625 3.796875 -14.40625 L 6.515625 -14.40625 C 8.328125 -14.40625 9.234375 -13.441406 9.234375 -11.515625 Z M 9.234375 0 "/></g></g></g><g fill="#ff7a47" fill-opacity="1"><g transform="translate(183.391152, 258.129578)"><g><path d="M 4.171875 -2.546875 L 7.5625 -2.546875 L 7.5625 0 L 1.09375 0 L 1.09375 -14.1875 L 7.5625 -14.1875 L 7.5625 -11.6875 L 4.171875 -11.6875 L 4.171875 -8.359375 L 7.34375 -8.359375 L 7.34375 -5.9375 L 4.171875 -5.9375 Z M 4.171875 -2.546875 "/></g></g></g><g fill="#ff7a47" fill-opacity="1"><g transform="translate(196.095163, 258.129578)"><g><path d="M 4.171875 -2.546875 L 7.5625 -2.546875 L 7.5625 0 L 1.09375 0 L 1.09375 -14.1875 L 7.5625 -14.1875 L 7.5625 -11.6875 L 4.171875 -11.6875 L 4.171875 -8.359375 L 7.34375 -8.359375 L 7.34375 -5.9375 L 4.171875 -5.9375 Z M 4.171875 -2.546875 "/></g></g></g><g fill="#ff7a47" fill-opacity="1"><g transform="translate(208.799175, 258.129578)"><g><path d="M 4.171875 -5.8125 L 4.171875 0 L 1.09375 0 L 1.09375 -14.1875 L 6.5625 -14.1875 C 8.375 -14.1875 9.28125 -13.222656 9.28125 -11.296875 L 9.28125 -9.65625 C 9.28125 -8.476562 8.863281 -7.734375 8.03125 -7.421875 C 8.757812 -7.148438 9.125 -6.546875 9.125 -5.609375 L 9.125 0 L 6.0625 0 L 6.0625 -5.375 C 6.0625 -5.664062 5.921875 -5.8125 5.640625 -5.8125 Z M 4.171875 -12.109375 L 4.171875 -7.96875 L 5.796875 -7.96875 C 5.910156 -7.96875 6.003906 -8.007812 6.078125 -8.09375 C 6.160156 -8.1875 6.203125 -8.289062 6.203125 -8.40625 L 6.203125 -11.671875 C 6.203125 -11.785156 6.160156 -11.882812 6.078125 -11.96875 C 6.003906 -12.0625 5.910156 -12.109375 5.796875 -12.109375 Z M 4.171875 -12.109375 "/></g></g></g><g fill="#ff7a47" fill-opacity="1"><g transform="translate(223.411745, 258.129578)"><g><path d="M 4.171875 -14.1875 L 4.171875 0 L 1.09375 0 L 1.09375 -14.1875 Z M 4.171875 -14.1875 "/></g></g></g><g fill="#ff7a47" fill-opacity="1"><g transform="translate(233.220018, 258.129578)"><g><path d="M 9.234375 0 L 6.171875 0 L 6.171875 -11.78125 C 6.171875 -11.894531 6.128906 -11.992188 6.046875 -12.078125 C 5.960938 -12.171875 5.863281 -12.21875 5.75 -12.21875 L 4.5625 -12.21875 C 4.445312 -12.21875 4.347656 -12.171875 4.265625 -12.078125 C 4.179688 -11.992188 4.140625 -11.894531 4.140625 -11.78125 L 4.140625 0 L 1.078125 0 L 1.078125 -11.515625 C 1.078125 -13.441406 1.984375 -14.40625 3.796875 -14.40625 L 6.515625 -14.40625 C 8.328125 -14.40625 9.234375 -13.441406 9.234375 -11.515625 Z M 9.234375 0 "/></g></g></g><g fill="#ff7a47" fill-opacity="1"><g transform="translate(247.876465, 258.129578)"><g><path d="M 5.25 -5.640625 L 5.25 -7.890625 L 9.296875 -7.890625 L 9.296875 -2.671875 C 9.296875 -0.742188 8.390625 0.21875 6.578125 0.21875 L 3.8125 0.21875 C 2 0.21875 1.09375 -0.742188 1.09375 -2.671875 L 1.09375 -11.515625 C 1.09375 -13.441406 2 -14.40625 3.8125 -14.40625 L 6.578125 -14.40625 C 8.390625 -14.40625 9.296875 -13.441406 9.296875 -11.515625 L 9.296875 -10.171875 L 6.390625 -10.171875 L 6.390625 -11.890625 C 6.390625 -12.003906 6.347656 -12.101562 6.265625 -12.1875 C 6.179688 -12.28125 6.082031 -12.328125 5.96875 -12.328125 L 4.578125 -12.328125 C 4.460938 -12.328125 4.363281 -12.28125 4.28125 -12.1875 C 4.207031 -12.101562 4.171875 -12.003906 4.171875 -11.890625 L 4.171875 -2.328125 C 4.171875 -2.210938 4.207031 -2.109375 4.28125 -2.015625 C 4.363281 -1.929688 4.460938 -1.890625 4.578125 -1.890625 L 5.96875 -1.890625 C 6.082031 -1.890625 6.179688 -1.929688 6.265625 -2.015625 C 6.347656 -2.109375 6.390625 -2.210938 6.390625 -2.328125 L 6.390625 -5.640625 Z M 5.25 -5.640625 "/></g></g></g><g clip-path="url(#ed9f01f5f1)"><path fill="#ff7a47" d="M 178.304688 178.027344 L 178.304688 175.089844 L 175.371094 175.089844 L 175.371094 178.027344 Z M 217.117188 200.621094 L 217.117188 183.195312 L 204.710938 171.441406 L 220.453125 154.851562 L 223.820312 151.304688 L 221.21875 147.15625 L 212.019531 132.882812 L 207.445312 125.589844 L 205.585938 122.628906 L 171.417969 122.628906 L 156.988281 135.261719 L 198.648438 135.261719 L 201.726562 140.167969 L 205.835938 146.335938 L 207.960938 149.714844 L 195.613281 162.722656 L 190.144531 157.488281 L 185.261719 152.839844 L 170.183594 167.273438 L 170.183594 172.246094 L 151.066406 190.464844 L 151.066406 185.429688 L 157.546875 179.320312 L 157.546875 157.929688 L 170.183594 157.929688 L 170.183594 167.273438 L 172.976562 164.601562 L 172.976562 169.585938 L 178.765625 164.070312 L 181 166.199219 L 184.128906 169.175781 L 192.558594 177.210938 Z M 178.304688 174.171875 L 178.304688 171.238281 L 175.371094 171.238281 L 175.371094 174.171875 Z M 179.222656 171.238281 L 179.222656 174.171875 L 182.160156 174.171875 L 182.160156 171.238281 Z M 182.160156 175.089844 L 179.222656 175.089844 L 179.222656 178.027344 L 182.160156 178.027344 Z M 182.160156 175.089844 " fill-opacity="1" fill-rule="evenodd"/></g></svg>